<svg height="148" viewBox="0 0 512 148" width="512" xmlns="http://www.w3.org/2000/svg"><path d="m88.1004353 139.62683c24.4666097-4.32208 44.6746327-7.8986 44.9067247-7.947819l.421992-.089493-23.098892-27.475407c-12.7043809-15.1114757-23.0988804-27.5340016-23.0988804-27.6056114 0-.1355789 23.8515564-65.8176106 23.9856424-66.0514484.044831-.0779635 16.27654 27.9456364 39.346727 67.9312205 21.598731 37.4352203 39.405838 68.3006933 39.57135 68.5899273l.300943.525888-73.410183-.009469-73.4101693-.009431 44.4847456-7.85833zm281.5194587-6.644771c-11.17447-.716436-17.673589-7.079429-19.395819-18.989532-.458131-3.168282-.459882-3.250485-.506765-23.818904l-.045377-19.9067897h4.945532 4.945516l.038946 19.254996c.035104 17.3539927.057129 19.3887247.223043 20.6095287.673353 4.954515 2.013885 8.286318 4.296141 10.677828 1.826534 1.913964 3.964781 3.03464 6.924681 3.629304 1.39641.280542 5.368859.281104 6.641992.001155 3.000759-.660362 5.405838-1.966194 7.527483-4.087035 2.418232-2.417319 4.20719-5.84699 5.072805-9.725269l.291739-1.307121.032487-19.4179474.032487-19.4179425h5.049067 5.049078v30.5255529 30.52555h-4.997064-4.997065v-4.843167c0-3.290774-.036067-4.831151-.11248-4.805677-.061852.020632-.318495.413234-.570315.872478-1.72201 3.140514-4.591067 6.0125-7.734891 7.742778-3.768421 2.074032-7.547657 2.811512-12.711209 2.480445zm113.421806-.049331c-3.944601-.2965-8.098041-1.652671-11.492808-3.752577-7.1551-4.425968-11.388745-11.721401-12.628344-21.761224-.428955-3.474155-.48051-8.1408351-.122558-11.0929216.799802-6.5962367 3.391823-13.071656 7.082863-17.6945206.946216-1.1850911 3.092781-3.3316523 4.277822-4.2778067 3.200112-2.5550252 6.943281-4.3417054 10.917505-5.2111191 2.315574-.506561 6.393332-.7444045 8.853496-.5163995 6.180119.5727743 11.84427 3.4825856 15.694054 8.0624077 3.911324 4.6530459 6.0612 11.1548897 6.335745 19.1610699.043029 1.2546954.053461 3.4544905.02321 4.8884339l-.055043 2.607163-21.644898.027406-21.644899.027406v.965908c0 2.940432.714874 6.289494 1.950735 9.138927 1.065744 2.4572 2.900285 5.140407 4.402339 6.438883 3.079832 2.662414 6.849142 4.25602 10.97371 4.639524 1.52934.142188 5.426888-.007506 7.1697-.275292 4.972353-.764151 9.699676-2.714428 13.517269-5.576598.449151-.336748.878983-.651367.955177-.699142.111502-.069917.137854.809894.135032 4.508221l-.003464 4.595097-1.022887.632628c-4.318647 2.670975-9.266103 4.386045-14.504448 5.02807-1.563279.191592-7.299714.276943-9.169247.136418zm18.837478-38.7553778c0-4.9254202-2.07564-10.3969515-5.012904-13.2143598-2.096202-2.0106743-4.630235-3.2394648-7.642708-3.7060562-1.425205-.2207493-4.428963-.1357291-5.931571.1678888-3.176458.6418398-5.803806 2.038269-8.095377 4.3026723-2.411734 2.3831421-4.219923 5.2776683-5.357092 8.5755788-.408911 1.1858917-.887185 3.1328355-1.035639 4.2158198l-.070733.516003h16.573007 16.573017zm-293.609066 37.2220618c.025354-.074686 7.375451-19.383833 16.33356-42.9092154l16.287469-42.7740736h5.233252 5.233242l.434204 1.1134773c1.326883 3.4026885 32.60636 84.6128527 32.60636 84.6550437 0 .027791-2.505322.049749-5.567383.049749l-5.567383-.001161-4.508221-12.002768-4.508221-12.002763-18.152198-.00022-18.152201-.000215-.157746.407368c-.086752.224052-2.012871 5.624913-4.280278 12.001921l-4.122536 11.594536-5.579006.001925c-4.416027.001377-5.569392-.026405-5.532914-.133889zm52.663606-33.0315195c0-.0190148-3.033858-8.2438197-6.741908-18.2773104-6.937122-18.7709294-7.325187-19.9003308-7.87328-22.9138884-.257013-1.4131115-.387056-1.4523806-.539606-.1629465-.109047.9216737-.581866 2.9840422-.946378 4.1280127-.180864.567601-3.304801 9.1416479-6.942088 19.0534347-3.637279 9.9117879-6.613238 18.0632509-6.613238 18.1143601 0 .051113 6.672716.0929302 14.828251.0929302s14.828247-.0155506 14.828247-.0346039zm26.832069 31.6040655v-1.563248l18.08513-24.861453 18.085129-24.8614567-16.374177-.0543155-16.374178-.0543155-.028445-4.1551686-.028446-4.1551674h23.683041 23.683036v1.403427 1.4034258l-18.087204 24.9970359c-9.947962 13.748373-18.087204 25.020165-18.087204 25.048434 0 .028253 8.041473.051394 17.869938.051394h17.869942v4.182324 4.182328h-25.148284-25.148278zm132.711923 1.490818c-.039835-.039823-.072426-13.825206-.072426-30.634181v-30.5617617h4.942753 4.942749v6.300647c0 3.4653567.042137 6.3006482.09365 6.3006482s.292078-.5672431.534587-1.2605384c1.111295-3.176943 3.0385-6.1454616 5.521401-8.5047544 2.236728-2.1253742 4.793109-3.3963593 7.809553-3.8827584.847332-.1366337 1.564299-.1627194 3.258957-.1185773 2.128294.0554357 3.240997.2110072 4.535381.634103l.407369.1331579v5.1305215 5.1305188l-1.167793-.5845643c-2.062842-1.0326027-4.098255-1.4412372-6.54507-1.3140071-1.592425.082807-2.637645.287286-3.910747.7650822-2.619427.9830717-4.744159 2.7182693-6.228819 5.0868578-2.149271 3.4288975-3.682153 7.8364015-4.134268 11.8873117-.081136.7269678-.128977 6.6475735-.148034 18.3194125l-.028138 17.245308h-4.869345c-2.678135 0-4.901929-.032602-4.941753-.072426zm-420.47771404-.214621c0-.038684 10.88408584-18.932603 24.18685694-41.986502l24.1868531-41.9161766 28.1869813-23.654572c15.5028396-13.0100117 28.2287297-23.67047287 28.2797497-23.69044939.051021-.01890385-.152915.49437783-.453192 1.14116763s-14.0734694 30.18883716-30.6070948 65.64899166l-30.0611298 64.4730067-21.8595122.027406c-12.02272905.015089-21.85951224-.004234-21.85951224-.042887z" fill="#0089d6"/></svg>