<svg xmlns="http://www.w3.org/2000/svg" height="1200" width="1600" version="1.1" xmlns:xlink="http://www.w3.org/1999/xlink" xmlns:svgjs="http://svgjs.com/svgjs"><rect fill="#ece9e6" width="1600" height="1200"></rect><g><path d="M1064.18 496.98C1132.33 496.98 1187.58 441.73 1187.58 373.58 1187.58 305.42 1132.33 250.17 1064.18 250.17 996.02 250.17 940.77 305.42 940.77 373.58 940.77 441.73 996.02 496.98 1064.18 496.98Z" fill="#efdcd7" opacity="1" stroke-width="4" stroke="none"></path><path d="M1077.22 325.62L1064.18 373.58 1106.67 429.39" stroke="#8c8982" stroke-width="4" stroke-linecap="round" stroke-linejoin="round" opacity="1" fill="none"></path><path d="M1064.18 284.81C1067.67 284.81 1070.49 281.98 1070.49 278.5 1070.49 275.01 1067.67 272.19 1064.18 272.19 1060.7 272.19 1057.86 275.01 1057.86 278.5 1057.86 281.98 1060.7 284.81 1064.18 284.81Z" fill="#dab1a6" opacity="1" stroke-width="4" stroke="none"></path><path d="M1064.18 474.82C1067.67 474.82 1070.49 471.99 1070.49 468.51 1070.49 465.02 1067.67 462.2 1064.18 462.2 1060.7 462.2 1057.86 465.02 1057.86 468.51 1057.86 471.99 1060.7 474.82 1064.18 474.82Z" fill="#dab1a6" opacity="1" stroke-width="4" stroke="none"></path><path d="M1159.11 379.89C1162.6 379.89 1165.42 377.05 1165.42 373.58 1165.42 370.08 1162.6 367.27 1159.11 367.27 1155.62 367.27 1152.8 370.08 1152.8 373.58 1152.8 377.05 1155.62 379.89 1159.11 379.89Z" fill="#dab1a6" opacity="1" stroke-width="4" stroke="none"></path><path d="M969.1 379.89C972.59 379.89 975.41 377.05 975.41 373.58 975.41 370.08 972.59 367.27 969.1 367.27 965.61 367.27 962.79 370.08 962.79 373.58 962.79 377.05 965.61 379.89 969.1 379.89Z" fill="#dab1a6" opacity="1" stroke-width="4" stroke="none"></path><path d="M1063.89 382.83C1068.77 382.83 1072.73 378.88 1072.73 374 1072.73 369.12 1068.77 365.16 1063.89 365.16 1059.01 365.16 1055.06 369.12 1055.06 374 1055.06 378.88 1059.01 382.83 1063.89 382.83Z" fill="#6c6c6c" opacity="1" stroke-width="4" stroke="none"></path></g><g><path d="M852.71 625.67L852.68 489.43 902.76 489.41 902.78 625.67H852.71Z" fill="#8c8982" opacity="1" stroke-width="4" stroke="none"></path><path d="M852.71 625.67L852.68 489.43 902.88 625.67H852.71Z" fill="#7f6a36" opacity="0.3" stroke-width="4" stroke="none"></path><path d="M877.78 609.46C883.02 609.46 887.26 605.21 887.26 599.97 887.26 594.73 883.02 590.49 877.78 590.49 872.54 590.49 868.29 594.73 868.29 599.97 868.29 605.21 872.54 609.46 877.78 609.46Z" fill="#000000" opacity="1" stroke-width="4" stroke="none"></path><path d="M803.1 625.67L803.07 489.43 853.14 489.41 853.17 625.67H803.1Z" fill="#89989f" opacity="1" stroke-width="4" stroke="none"></path><path d="M803.1 625.67L803.07 489.43 853.18 625.67H803.1Z" fill="#505050" opacity="0.3" stroke-width="4" stroke="none"></path><path d="M828.16 609.46C833.4 609.46 837.65 605.21 837.65 599.97 837.65 594.73 833.4 590.49 828.16 590.49 822.92 590.49 818.68 594.73 818.68 599.97 818.68 605.21 822.92 609.46 828.16 609.46Z" fill="#000000" opacity="1" stroke-width="4" stroke="none"></path><path d="M852.71 490.3V625.65" stroke="#000000" stroke-width="4" stroke-linecap="round" stroke-linejoin="round" opacity="1" fill="none"></path></g><g><path d="M961.64 1031.84H940.98V713.21C940.98 678.09 918.42 649.48 890.73 649.48H540.82C513.13 649.48 490.57 678.09 490.57 713.21V1031.84H469.91V713.21C469.91 665.06 501.73 625.88 540.82 625.88H890.73C929.82 625.88 961.64 665.06 961.64 713.21V1031.84Z" fill="#89989f" opacity="1" stroke-width="4" stroke="none"></path></g><g><path d="M1102.87 1032.2H1029.2L1020.83 952.63H1111.24L1102.87 1032.2Z" fill="#8c8982" opacity="1" stroke-width="4" stroke="none"></path><path d="M1102.87 1032.2H1074.05L1095.2 952.63H1111.24L1102.87 1032.2Z" fill="#242424" opacity="0.3" stroke-width="4" stroke="none"></path><path d="M1120.23 938.44H1011.84V970.25H1120.23V938.44Z" fill="#8c8982" opacity="1" stroke-width="4" stroke="none"></path><path d="M1126.81 915.41C1143.41 910.13 1153.72 895.93 1149.82 883.68 1145.93 871.44 1129.32 865.79 1112.72 871.07 1096.11 876.35 1085.81 890.55 1089.69 902.79 1093.59 915.04 1110.21 920.68 1126.81 915.41Z" fill="#342a28" opacity="1" stroke-width="4" stroke="none"></path><path d="M1021.9 914.67C1041.82 909.46 1054.36 891.46 1049.91 874.46 1045.47 857.46 1025.71 847.91 1005.8 853.13 985.88 858.34 973.34 876.34 977.79 893.34 982.24 910.33 1001.99 919.89 1021.9 914.67Z" fill="#342a28" opacity="1" stroke-width="4" stroke="none"></path><path d="M1109.65 828.42C1116.36 806.1 1107.03 783.56 1088.8 778.08 1070.58 772.6 1050.37 786.25 1043.66 808.58 1036.95 830.9 1046.28 853.44 1064.5 858.93 1082.72 864.41 1102.94 850.75 1109.65 828.42Z" fill="#342a28" opacity="1" stroke-width="4" stroke="none"></path><path d="M1088.15 778.6C1064.09 850.59 1065.59 938.44 1065.59 938.44" stroke="#000000" stroke-width="4" stroke-linecap="round" stroke-linejoin="round" opacity="1" fill="none"></path><path d="M1149.48 884C1087.53 892.37 1066.65 915.81 1066.65 915.81" stroke="#000000" stroke-width="4" stroke-linecap="round" stroke-linejoin="round" opacity="1" fill="none"></path><path d="M1109.39 970.25H1022.68" stroke="#242424" stroke-width="4" stroke-linecap="round" stroke-linejoin="round" opacity="1" fill="none"></path><path d="M977.83 893.69C1025.59 862.32 1066.65 879.33 1066.65 879.33" stroke="#000000" stroke-width="4" stroke-linecap="round" stroke-linejoin="round" opacity="1" fill="none"></path></g><g><path d="M769.88 612.71L804.28 507.06C805.51 503.11 805.22 499.54 803.25 496.81 801.46 494.27 798.46 492.96 794.88 492.96H643.08C635.28 492.96 627.01 499.25 624.47 506.96L590.07 612.71 769.88 612.71Z" fill="#342a28" opacity="1" stroke-width="4" stroke="none"></path><path d="M756.35 611.67L788.59 512.7H634.81L602.57 611.67H756.35Z" fill="#ffffff" opacity="1" stroke-width="4" stroke="none"></path><path d="M706.34 506.96C708.97 506.77 711.23 505.08 712.07 502.64 712.45 501.7 712.36 500.57 711.79 499.72 711.23 498.97 710.29 498.6 709.44 498.69 706.81 498.88 704.55 500.57 703.71 503.01 703.33 503.95 703.43 505.08 703.99 505.93 704.55 506.68 705.4 507.06 706.34 506.96Z" fill="#0c0c0c" opacity="1" stroke-width="4" stroke="none"></path><path d="M664.07 587.68C654.21 576.3 658.5 556.44 673.63 543.32 688.77 530.19 709.04 528.77 718.91 540.15 728.77 551.53 724.48 571.39 709.34 584.51 694.2 597.63 673.93 599.05 664.07 587.68Z" fill="#89989f" opacity="1" stroke-width="4" stroke="none"></path><path d="M477.18 611.3L653.98 611.3H770.07L768.75 615.53C766.97 621.17 761.61 625.02 755.69 625.02H663.85 487.05C485.92 625.02 484.7 624.83 483.57 624.46 478.21 622.58 475.3 616.75 477.18 611.3Z" fill="#342a28" opacity="1" stroke-width="4" stroke="none"></path><path d="M755.69 625.02C767.81 625.12 770.35 611.39 770.35 611.39L653.98 611.3C653.61 612.33 653.42 613.46 653.42 614.49 653.42 620.23 658.03 624.93 663.85 625.02H755.69Z" fill="#000000" opacity="1" stroke-width="4" stroke="none"></path><path d="M770.35 611.3L590.44 611.3" stroke="#000000" stroke-width="4" stroke-linecap="round" stroke-linejoin="round" opacity="1" fill="none"></path></g><g><path d="M500.51 346.48C526.56 345.45 529.12 334.68 539.07 349.65 540.3 351.5 555.17 349.24 556.2 351.71 559.38 360.32 561.02 373.24 562.76 384.83 562.76 384.83 571.99 386.68 572.71 390.57 573.43 395.09 565.32 401.44 565.32 401.44 568.71 412.01 570.35 424.11 562.66 434.88 551.58 450.46 523.38 446.36 523.38 446.36L523.07 453.54 497.13 466.57 453.44 453.54 453.23 447.8C455.8 425.44 463.08 384.73 463.08 372.93 463.08 340.63 470.57 347.6 500.51 346.48Z" fill="#eaa58b" opacity="1" stroke-width="4" stroke="none"></path><path d="M523.28 446.36L522.97 453.54 511.48 462.87 500 446.46C497.95 443.49 500.92 439.8 504.31 441.03L523.28 446.36Z" fill="#000000" opacity="0.3" stroke-width="4" stroke="none"></path><path d="M553.12 345.65C543.07 330.58 526.25 322.79 499.9 323.81 469.74 324.94 451.59 342.68 451.49 375.19 451.49 386.68 452.52 425.44 453.23 447.8 453.23 447.8 476.82 447.49 487.18 434.06 487.18 434.06 465.44 413.34 475.8 397.85 486.15 382.37 509.95 400.93 509.95 400.93 525.64 393.55 520 377.96 518.56 374.68 518.46 374.47 518.66 374.16 518.97 374.27 523.48 375.7 550.35 382.98 543.28 358.06 543.17 357.76 543.38 357.55 543.69 357.55 553.63 357.35 556.2 351.71 556.2 351.71 555.38 349.55 554.25 347.6 553.12 345.65Z" fill="#c65a42" opacity="1" stroke-width="4" stroke="none"></path><path d="M556.09 409.85C548.81 411.08 544.71 404.93 544.71 404.93" stroke="#000000" stroke-width="4" stroke-linecap="round" stroke-linejoin="round" opacity="1" fill="none"></path><path d="M523.28 446.36L506.66 441.75" stroke="#000000" stroke-width="4" stroke-linecap="round" stroke-linejoin="round" opacity="1" fill="none"></path><path d="M502.46 415.08L493.54 411.08" stroke="#000000" stroke-width="4" stroke-linecap="round" stroke-linejoin="round" opacity="1" fill="none"></path><path d="M550.35 388.52C552.11 388.52 553.53 387.1 553.53 385.34 553.53 383.59 552.11 382.16 550.35 382.16 548.6 382.16 547.17 383.59 547.17 385.34 547.17 387.1 548.6 388.52 550.35 388.52Z" fill="#000000" opacity="1" stroke-width="4" stroke="none"></path><path d="M522.97 958.31L520.1 951.64C521.43 939.54 523.18 928.16 525.33 916.88L530.66 901.39 634.34 903.03 632.09 916.57C629.63 924.26 627.98 932.16 626.86 940.16L599.17 994.41 522.97 958.31Z" fill="#eaa58b" opacity="1" stroke-width="4" stroke="none"></path><path d="M461.23 704.69C468.62 672.8 480.41 652.7 480.41 652.7L483.9 656.9C483.9 656.9 620.7 672.18 662.65 722.03 696.9 762.64 648.91 861.5 631.98 916.88H525.33C534.56 868.88 549.84 825.91 568.09 789.71H543.58C477.13 789.81 451.18 748.69 461.23 704.69Z" fill="#342a28" opacity="1" stroke-width="4" stroke="none"></path><path d="M662.75 722.03C620.81 672.18 484 656.9 484 656.9L480.51 652.7C480.51 652.7 468.72 672.8 461.34 704.69 451.29 748.69 480.1 775.97 546.66 775.76L568.09 789.71C564.4 797.09 560.91 804.48 557.43 812.48 552.2 824.27 613.52 834.63 616.6 916.88H631.98C648.91 861.5 696.9 762.64 662.75 722.03Z" fill="#040404" opacity="0.3" stroke-width="4" stroke="none"></path><path d="M631.98 916.88H525.33" stroke="#040404" stroke-width="4" stroke-linecap="round" stroke-linejoin="round" opacity="1" fill="none"></path><path d="M662.13 1010.2C651.06 991.74 626.55 986.82 626.34 949.59 626.34 947.54 626.75 941.18 626.86 940.16H602.14C594.35 940.05 588.09 946.31 587.99 954.1 587.99 954.92 588.09 955.74 588.19 956.67L592.09 980.87C592.09 980.87 564.91 953.69 520.1 951.64 519.07 959.74 518.56 968.26 518.05 976.67 517.84 979.64 517.74 983.02 517.53 986.1 517.23 993.79 516.51 1002.1 516.51 1010.2L517.33 1011.74 661.83 1010.61C661.83 1010.51 662.13 1010.2 662.13 1010.2Z" fill="#8c8982" opacity="1" stroke-width="4" stroke="none"></path><path d="M662.13 1010.2H516.51C516.3 1016.87 516.51 1023.94 516.71 1031.02H667.47C667.57 1026.1 666.75 1021.28 665.31 1016.56 664.39 1014.3 663.37 1012.15 662.13 1010.2Z" fill="#f3f3f3" opacity="1" stroke-width="4" stroke="none"></path><path d="M629.42 969.49L612.91 976.46" stroke="#030303" stroke-width="4" stroke-linecap="round" stroke-linejoin="round" opacity="1" fill="none"></path><path d="M636.6 982.72L623.37 992.87" stroke="#030303" stroke-width="4" stroke-linecap="round" stroke-linejoin="round" opacity="1" fill="none"></path><path d="M591.99 980.56L597.53 1010.2" stroke="#030303" stroke-width="4" stroke-linecap="round" stroke-linejoin="round" opacity="1" fill="none"></path><path d="M658.03 915.03L741.41 865.81 754.33 877.7C756.69 889.91 757.92 899.03 759.87 903.03L754.23 964.87H679.36L669.01 960.05C664.6 948.16 661.72 938.52 658.55 926.93L658.03 915.03Z" fill="#eaa58b" opacity="1" stroke-width="4" stroke="none"></path><path d="M429.13 685.41L435.18 648.8 558.86 652.39C558.86 652.39 674.85 668.49 708.08 704.8 736.28 740.07 735.15 776.38 746.13 834.12 749 849.6 751.87 865.19 754.33 877.7L658.55 926.93C641.73 863.86 639.98 830.22 640.09 789.51L514.25 789.81C458.67 790.33 417.44 739.25 429.13 685.41Z" fill="#342a28" opacity="1" stroke-width="4" stroke="none"></path><path d="M754.33 877.7L658.55 926.93" stroke="#040404" stroke-width="4" stroke-linecap="round" stroke-linejoin="round" opacity="1" fill="none"></path><path d="M822.43 947.75C804.27 936.16 779.76 942.41 762.84 909.19 761.82 907.34 761 905.29 759.97 903.13 759.97 903.03 759.87 902.93 759.77 902.93L742.33 911.34C734.23 915.24 730.74 924.98 734.64 933.08 735.05 933.9 735.46 934.62 735.97 935.34L748.59 953.49C748.59 953.49 711.16 940.77 669.01 960.05 671.67 967.23 674.54 974.51 677.52 981.9 678.65 984.77 680.08 987.74 681.21 990.82 684.18 998 691.47 1012.97 691.47 1012.97L694.34 1014.41 822.43 949.49C822.63 949.08 822.53 947.85 822.43 947.75Z" fill="#8c8982" opacity="1" stroke-width="4" stroke="none"></path><path d="M826.94 951.23C825.5 950 823.96 948.77 822.43 947.75L691.47 1012.97C694.34 1019.02 697.72 1024.76 701.11 1031.02L836.07 963.74C833.81 958.92 830.73 954.72 826.94 951.23Z" fill="#f3f3f3" opacity="1" stroke-width="4" stroke="none"></path><path d="M775.87 926.82L764.79 940.16" stroke="#030303" stroke-width="4" stroke-linecap="round" stroke-linejoin="round" opacity="1" fill="none"></path><path d="M788.79 935.13L782.12 949.08" stroke="#030303" stroke-width="4" stroke-linecap="round" stroke-linejoin="round" opacity="1" fill="none"></path><path d="M748.69 953.39L766.64 975.54" stroke="#030303" stroke-width="4" stroke-linecap="round" stroke-linejoin="round" opacity="1" fill="none"></path><path d="M646.44 875.24C640.39 842.01 639.88 817.71 640.09 789.51" stroke="#040404" stroke-width="4" stroke-linecap="round" stroke-linejoin="round" opacity="1" fill="none"></path><path d="M568.09 789.71L640.09 789.51" stroke="#040404" stroke-width="4" stroke-linecap="round" stroke-linejoin="round" opacity="1" fill="none"></path><path d="M630.04 573.12C612.19 581.53 598.04 588.5 598.04 588.5 598.04 588.5 588.81 537.22 577.53 508.51 566.25 479.79 549.84 464.41 523.18 462.36L522.97 453.54H453.44V463.18C420.93 467.39 401.14 511.48 387.8 558.66 374.47 605.83 372.01 676.59 429.13 685.31L436.31 652.39 542.35 652.6C542.35 652.6 559.07 675.57 593.94 671.47 614.65 669.01 644.39 651.88 667.98 636.29L670.65 633.21 639.98 572.71 630.04 573.12Z" fill="#8c8982" opacity="1" stroke-width="4" stroke="none"></path><path d="M407.39 677.52C414.06 681.62 421.24 684.08 429.13 685.31L436.31 652.39 429.95 604.29C420.72 604.29 424.72 623.37 419.6 647.98 415.19 669.21 407.39 677.52 407.39 677.52Z" fill="#000000" opacity="0.3" stroke-width="4" stroke="none"></path><path d="M542.35 652.6C532.51 635.06 519.07 602.86 511.89 562.86" stroke="#000000" stroke-width="4" stroke-linecap="round" stroke-linejoin="round" opacity="1" fill="none"></path><path d="M427.19 583.68L436.31 652.39" stroke="#000000" stroke-width="4" stroke-linecap="round" stroke-linejoin="round" opacity="1" fill="none"></path><path d="M598.04 588.5L587.58 610.65" stroke="#000000" stroke-width="4" stroke-linecap="round" stroke-linejoin="round" opacity="1" fill="none"></path><path d="M411.39 625.42L432.21 621.32" stroke="#000000" stroke-width="4" stroke-linecap="round" stroke-linejoin="round" opacity="1" fill="none"></path><path d="M726.85 559.17L716.69 569.32C716.28 569.73 715.67 570.14 715.05 570.25 712.28 570.86 704.08 572.61 696.49 572.09 693.72 571.89 692.29 568.71 693.93 566.55 698.64 560.2 705.93 549.02 701.62 545.43 697.82 542.25 659.06 559.48 630.04 573.12L667.98 636.29C684.08 625.63 697.21 615.88 702.64 612.09 710.54 606.35 716.69 598.35 719.87 589.01 719.98 588.6 720.18 588.3 720.39 587.99 722.54 585.32 733.51 570.96 732.69 561.22 732.49 558.35 728.9 557.12 726.85 559.17Z" fill="#eaa58b" opacity="1" stroke-width="4" stroke="none"></path><path d="M542.35 652.6C525.23 625.52 514.15 574.14 514.15 574.14H513.02C506.05 575.89 502.77 580.4 500.82 592.81 498.66 609.63 493.33 639.37 480.21 652.49L542.35 652.6Z" fill="#000000" opacity="0.3" stroke-width="4" stroke="none"></path><path d="M720.08 588.5C712.9 593.63 693.11 592.6 693.11 592.6" stroke="#000000" stroke-width="4" stroke-linecap="round" stroke-linejoin="round" opacity="1" fill="none"></path><path d="M709.92 605.73C700.59 609.01 688.29 609.01 688.29 609.01" stroke="#000000" stroke-width="4" stroke-linecap="round" stroke-linejoin="round" opacity="1" fill="none"></path><path d="M693.93 566.55L682.13 580.3" stroke="#000000" stroke-width="4" stroke-linecap="round" stroke-linejoin="round" opacity="1" fill="none"></path></g><g><path d="M463.77 790.17H491.95V977.57H463.77V790.17Z" fill="#231f20" opacity="1" stroke-width="4" stroke="none"></path><path d="M360.62 609.35H468.76C483.16 609.35 496.85 621.05 499.35 635.34L527.74 796.76H367.51L339.13 635.34C336.63 621.05 346.32 609.35 360.62 609.35Z" fill="#89989f" opacity="1" stroke-width="4" stroke="none"></path><path d="M547.63 975.58H407.59C399.8 975.58 393.5 981.97 393.5 989.67 393.5 997.46 399.9 1003.76 407.59 1003.76H547.63C555.42 1003.76 561.72 997.36 561.72 989.67 561.72 981.87 555.32 975.58 547.63 975.58Z" fill="#89989f" opacity="1" stroke-width="4" stroke="none"></path><path d="M547.63 1031.95C539.84 1031.95 533.53 1025.64 533.53 1017.85 533.53 1010.07 539.84 1003.76 547.63 1003.76 555.41 1003.76 561.72 1010.07 561.72 1017.85 561.72 1025.64 555.41 1031.95 547.63 1031.95Z" fill="#231f20" opacity="1" stroke-width="4" stroke="none"></path><path d="M477.56 1031.95C469.77 1031.95 463.47 1025.64 463.47 1017.85 463.47 1010.07 469.77 1003.76 477.56 1003.76 485.35 1003.76 491.65 1010.07 491.65 1017.85 491.65 1025.64 485.35 1031.95 477.56 1031.95Z" fill="#231f20" opacity="1" stroke-width="4" stroke="none"></path><path d="M407.49 1031.95C399.71 1031.95 393.4 1025.64 393.4 1017.85 393.4 1010.07 399.71 1003.76 407.49 1003.76 415.28 1003.76 421.59 1010.07 421.59 1017.85 421.59 1025.64 415.28 1031.95 407.49 1031.95Z" fill="#231f20" opacity="1" stroke-width="4" stroke="none"></path><path d="M520.64 755.98L527.84 796.76H367.61L364.62 779.37 520.64 755.98Z" fill="#000000" opacity="0.2" stroke-width="4" stroke="none"></path><path d="M647.38 785.67H504.25C496.45 785.67 490.15 792.06 490.15 799.76 490.15 807.56 496.55 813.85 504.25 813.85H647.38C655.17 813.85 661.47 807.46 661.47 799.76 661.47 792.06 655.07 785.67 647.38 785.67Z" fill="#89989f" opacity="1" stroke-width="4" stroke="none"></path><path d="M526.44 785.67H368.21C360.42 785.67 354.12 792.06 354.12 799.76 354.12 807.56 360.52 813.85 368.21 813.85H526.44C534.23 813.85 540.53 807.46 540.53 799.76 540.53 792.06 534.23 785.67 526.44 785.67Z" fill="#89989f" opacity="1" stroke-width="4" stroke="none"></path><path d="M525.44 783.67H366.21" stroke="#000000" stroke-width="4" stroke-linecap="round" stroke-linejoin="round" opacity="1" fill="none"></path></g></svg>